<svg width="24" height="24" viewBox="0 0 24 24" fill="none" xmlns="http://www.w3.org/2000/svg">
<g clip-path="url(#clip0_333_8993)">
<path d="M2.57715 5.224L5.49517 10.419V13.5878L2.58056 18.7726L2.57715 5.224Z" fill="#5B57A2"/>
<path d="M13.7812 8.52865L16.5155 6.85945L22.1114 6.85425L13.7812 11.937V8.52865Z" fill="#D90751"/>
<path d="M13.7658 5.1934L13.7813 12.0714L10.8564 10.2814V0L13.7658 5.1934Z" fill="#FAB718"/>
<path d="M22.1115 6.8542L16.5154 6.8594L13.7658 5.1934L10.8564 0L22.1115 6.8542Z" fill="#ED6F26"/>
<path d="M13.7813 18.8014V15.4644L10.8564 13.7084L10.8581 24L13.7813 18.8014Z" fill="#63B22F"/>
<path d="M16.5087 17.1474L5.49497 10.419L2.57715 5.224L22.0995 17.1406L16.5087 17.1474Z" fill="#1487C9"/>
<path d="M10.8579 24L13.7808 18.8014L16.5082 17.1474L22.0991 17.1406L10.8579 24Z" fill="#017F36"/>
<path d="M2.58057 18.7726L10.8802 13.7086L8.08992 12.0034L5.49518 13.5878L2.58057 18.7726Z" fill="#984995"/>
</g>
<defs>
<clipPath id="clip0_333_8993">
<rect width="24" height="24" fill="white"/>
</clipPath>
</defs>
</svg>
