<svg width="24" height="25" viewBox="0 0 24 25" fill="none" xmlns="http://www.w3.org/2000/svg">
<path d="M16.19 2.5H7.81C4.17 2.5 2 4.67 2 8.31V16.68C2 20.33 4.17 22.5 7.81 22.5H16.18C19.82 22.5 21.99 20.33 21.99 16.69V8.31C22 4.67 19.83 2.5 16.19 2.5ZM8.64 13.31L13.02 8.93H10.59C10.18 8.93 9.84 8.59 9.84 8.18C9.84 7.77 10.18 7.43 10.59 7.43H14.83C14.93 7.43 15.02 7.45 15.12 7.49C15.3 7.57 15.45 7.71 15.53 7.9C15.57 7.99 15.59 8.09 15.59 8.19V12.43C15.59 12.84 15.25 13.18 14.84 13.18C14.43 13.18 14.09 12.84 14.09 12.43V10L9.7 14.37C9.55 14.52 9.36 14.59 9.17 14.59C8.98 14.59 8.79 14.52 8.64 14.37C8.35 14.08 8.35 13.6 8.64 13.31ZM18.24 17.72C16.23 18.39 14.12 18.73 12 18.73C9.88 18.73 7.77 18.39 5.76 17.72C5.37 17.59 5.16 17.16 5.29 16.77C5.42 16.38 5.84 16.16 6.24 16.3C9.96 17.54 14.05 17.54 17.77 16.3C18.16 16.17 18.59 16.38 18.72 16.77C18.84 17.17 18.63 17.59 18.24 17.72Z" fill="url(#paint0_linear_185_642)"/>
<defs>
<linearGradient id="paint0_linear_185_642" x1="11.995" y1="2.5" x2="11.995" y2="22.5" gradientUnits="userSpaceOnUse">
<stop stop-color="#CBCBCB"/>
<stop offset="1" stop-color="#757575"/>
</linearGradient>
</defs>
</svg>
