<svg width="10" height="10" viewBox="0 0 10 10" fill="none" xmlns="http://www.w3.org/2000/svg">
<path d="M8.50833 3.75003C8.45 3.74587 8.375 3.7417 8.29167 3.7417C8.12917 3.7417 8 3.87087 8 4.03337V5.97087C8 6.13337 8.12917 6.26253 8.29167 6.26253C8.375 6.26253 8.44583 6.25837 8.51667 6.2542C9.16667 6.1792 9.16667 5.72087 9.16667 5.38753V4.61253C9.16667 4.2792 9.16667 3.82087 8.50833 3.75003Z" fill="url(#paint0_linear_331_3004)"/>
<path d="M5.38742 1.99585H3.06242C1.35409 1.99585 0.833252 2.51668 0.833252 4.22502V5.77502C0.833252 7.48335 1.35409 8.00418 3.06242 8.00418H5.38742C7.09575 8.00418 7.61659 7.48335 7.61659 5.77502V4.22502C7.61659 2.51668 7.09575 1.99585 5.38742 1.99585ZM2.95825 5.90835C2.92492 6.05002 2.79575 6.14585 2.65409 6.14585C2.62909 6.14585 2.60409 6.14168 2.57909 6.13752C2.41242 6.09585 2.30825 5.92502 2.34992 5.75835C2.47492 5.26252 2.47492 4.73752 2.34992 4.24168C2.30825 4.07502 2.40825 3.90418 2.57909 3.86252C2.74992 3.82085 2.91659 3.92502 2.95825 4.09168C3.10825 4.68752 3.10825 5.31252 2.95825 5.90835ZM4.41659 5.90835C4.38325 6.05002 4.25409 6.14585 4.11242 6.14585C4.08742 6.14585 4.06242 6.14168 4.03742 6.13752C3.87075 6.09585 3.76659 5.92502 3.80825 5.75835C3.93325 5.26252 3.93325 4.73752 3.80825 4.24168C3.76659 4.07502 3.86659 3.90418 4.03742 3.86252C4.20409 3.82085 4.37492 3.92085 4.41659 4.09168C4.56659 4.68752 4.56659 5.31252 4.41659 5.90835ZM5.87492 5.90835C5.84159 6.05002 5.71242 6.14585 5.57075 6.14585C5.54575 6.14585 5.52075 6.14168 5.49575 6.13752C5.32909 6.09585 5.22492 5.92502 5.26659 5.75835C5.39159 5.26252 5.39159 4.73752 5.26659 4.24168C5.22492 4.07502 5.32492 3.90418 5.49575 3.86252C5.66242 3.82085 5.83325 3.92085 5.87492 4.09168C6.02492 4.68752 6.02492 5.31252 5.87492 5.90835Z" fill="url(#paint1_linear_331_3004)"/>
<defs>
<linearGradient id="paint0_linear_331_3004" x1="8.58333" y1="3.7417" x2="8.58333" y2="6.26253" gradientUnits="userSpaceOnUse">
<stop stop-color="#CBCBCB"/>
<stop offset="1" stop-color="#757575"/>
</linearGradient>
<linearGradient id="paint1_linear_331_3004" x1="4.22492" y1="1.99585" x2="4.22492" y2="8.00418" gradientUnits="userSpaceOnUse">
<stop stop-color="#CBCBCB"/>
<stop offset="1" stop-color="#757575"/>
</linearGradient>
</defs>
</svg>
