<svg width="32" height="33" viewBox="0 0 32 33" fill="none" xmlns="http://www.w3.org/2000/svg">
<path d="M2.66663 15.78V22.4467C2.66663 25.5 5.13329 27.9667 8.18663 27.9667H23.8C26.8533 27.9667 29.3333 25.4867 29.3333 22.4334V15.78C29.3333 14.8867 28.6133 14.1667 27.72 14.1667H4.27996C3.38663 14.1667 2.66663 14.8867 2.66663 15.78ZM10.6666 23.5H7.99996C7.45329 23.5 6.99996 23.0467 6.99996 22.5C6.99996 21.9534 7.45329 21.5 7.99996 21.5H10.6666C11.2133 21.5 11.6666 21.9534 11.6666 22.5C11.6666 23.0467 11.2133 23.5 10.6666 23.5ZM19.3333 23.5H14C13.4533 23.5 13 23.0467 13 22.5C13 21.9534 13.4533 21.5 14 21.5H19.3333C19.88 21.5 20.3333 21.9534 20.3333 22.5C20.3333 23.0467 19.88 23.5 19.3333 23.5Z" fill="#EB001B"/>
<path d="M18 6.64666V10.5533C18 11.4467 17.28 12.1667 16.3866 12.1667H4.27996C3.37329 12.1667 2.66663 11.42 2.66663 10.5267C2.67996 9.01999 3.27996 7.64666 4.27996 6.64666C5.27996 5.64666 6.66663 5.03333 8.18663 5.03333H16.3866C17.28 5.03333 18 5.75333 18 6.64666Z" fill="#EB001B"/>
<path d="M26.6267 3.16669H22.7067C21.0133 3.16669 20 4.18002 20 5.87335V9.79335C20 11.4867 21.0133 12.5 22.7067 12.5H26.6267C28.32 12.5 29.3333 11.4867 29.3333 9.79335V5.87335C29.3333 4.18002 28.32 3.16669 26.6267 3.16669ZM27.12 9.15335C27.2667 9.32669 27.3467 9.51335 27.3467 9.74002C27.3467 9.92669 27.2667 10.14 27.12 10.2867C26.8133 10.5934 26.2933 10.5934 25.9867 10.2867L24.6667 8.96669L23.36 10.3C23.0533 10.6067 22.5333 10.6067 22.2133 10.2867C21.9067 9.98002 21.9067 9.46002 22.2133 9.15335L23.5467 7.84669L22.2267 6.52669C21.92 6.22002 21.9067 5.70002 22.2133 5.38002C22.52 5.06002 23.04 5.07335 23.36 5.39335L24.6667 6.71335L26 5.38002C26.3067 5.07335 26.8267 5.07335 27.1333 5.38002C27.28 5.55335 27.3467 5.75335 27.36 5.96669C27.36 6.15335 27.28 6.36669 27.1467 6.52669L25.8133 7.86002L27.12 9.15335Z" fill="#EB001B"/>
</svg>
