<svg width="32" height="33" viewBox="0 0 32 33" fill="none" xmlns="http://www.w3.org/2000/svg">
<path d="M2.66663 15.78V22.4467C2.66663 25.5 5.13329 27.9667 8.18663 27.9667H23.8C26.8533 27.9667 29.3333 25.4867 29.3333 22.4334V15.78C29.3333 14.8867 28.6133 14.1667 27.72 14.1667H4.27996C3.38663 14.1667 2.66663 14.8867 2.66663 15.78ZM10.6666 23.5H7.99996C7.45329 23.5 6.99996 23.0467 6.99996 22.5C6.99996 21.9534 7.45329 21.5 7.99996 21.5H10.6666C11.2133 21.5 11.6666 21.9534 11.6666 22.5C11.6666 23.0467 11.2133 23.5 10.6666 23.5ZM19.3333 23.5H14C13.4533 23.5 13 23.0467 13 22.5C13 21.9534 13.4533 21.5 14 21.5H19.3333C19.88 21.5 20.3333 21.9534 20.3333 22.5C20.3333 23.0467 19.88 23.5 19.3333 23.5Z" fill="#14CD36"/>
<path d="M18 6.64672V10.5534C18 11.4467 17.28 12.1667 16.3866 12.1667H4.27996C3.37329 12.1667 2.66663 11.4201 2.66663 10.5267C2.67996 9.02005 3.27996 7.64672 4.27996 6.64672C5.27996 5.64672 6.66663 5.03339 8.18663 5.03339H16.3866C17.28 5.03339 18 5.75339 18 6.64672Z" fill="#14CD36"/>
<path d="M26.6267 3.16669H22.7067C21.0133 3.16669 20 4.18002 20 5.87335V9.79335C20 11.4867 21.0133 12.5 22.7067 12.5H26.6267C28.32 12.5 29.3333 11.4867 29.3333 9.79335V5.87335C29.3333 4.18002 28.32 3.16669 26.6267 3.16669ZM27.88 8.40669C27.7467 8.54002 27.5467 8.63335 27.3333 8.64669H25.4533L25.4667 10.5C25.4533 10.7267 25.3733 10.9134 25.2133 11.0734C25.08 11.2067 24.88 11.3 24.6667 11.3C24.2267 11.3 23.8667 10.94 23.8667 10.5V8.63335L22 8.64669C21.56 8.64669 21.2 8.27335 21.2 7.83335C21.2 7.39335 21.56 7.03335 22 7.03335L23.8667 7.04669V5.18002C23.8667 4.74002 24.2267 4.36669 24.6667 4.36669C25.1067 4.36669 25.4667 4.74002 25.4667 5.18002L25.4533 7.03335H27.3333C27.7733 7.03335 28.1333 7.39335 28.1333 7.83335C28.12 8.06002 28.0267 8.24669 27.88 8.40669Z" fill="#14CD36"/>
</svg>
