<svg width="25" height="25" viewBox="0 0 25 25" fill="none" xmlns="http://www.w3.org/2000/svg">
<path d="M12.5 2.5C6.99 2.5 2.5 6.99 2.5 12.5C2.5 18.01 6.99 22.5 12.5 22.5C18.01 22.5 22.5 18.01 22.5 12.5C22.5 6.99 18.01 2.5 12.5 2.5ZM16.85 16.07C16.71 16.31 16.46 16.44 16.2 16.44C16.07 16.44 15.94 16.41 15.82 16.33L12.72 14.48C11.95 14.02 11.38 13.01 11.38 12.12V8.02C11.38 7.61 11.72 7.27 12.13 7.27C12.54 7.27 12.88 7.61 12.88 8.02V12.12C12.88 12.48 13.18 13.01 13.49 13.19L16.59 15.04C16.95 15.25 17.07 15.71 16.85 16.07Z" fill="url(#paint0_linear_342_15200)"/>
<defs>
<linearGradient id="paint0_linear_342_15200" x1="12.5" y1="2.5" x2="12.5" y2="22.5" gradientUnits="userSpaceOnUse">
<stop stop-color="#CBCBCB"/>
<stop offset="1" stop-color="#757575"/>
</linearGradient>
</defs>
</svg>
