<svg width="24" height="25" viewBox="0 0 24 25" fill="none" xmlns="http://www.w3.org/2000/svg">
<path d="M20.99 10.21C20.65 10.07 20.2 10 19.64 10H14.36C12.62 10 12 10.62 12 12.38V20.12C12 20.7 12.07 21.15 12.22 21.5C12.53 22.22 13.19 22.5 14.36 22.5H19.64C21.38 22.5 22 21.87 22 20.12V12.38C22 11.19 21.72 10.52 20.99 10.21ZM18 20.25H16C15.98 20.25 15.95 20.25 15.93 20.24C15.78 20.23 15.65 20.18 15.54 20.08C15.36 19.95 15.25 19.74 15.25 19.5C15.25 19.09 15.59 18.75 16 18.75H18C18.41 18.75 18.75 19.09 18.75 19.5C18.75 19.91 18.41 20.25 18 20.25Z" fill="url(#paint0_linear_331_2989)"/>
<path d="M20.99 6.69V7.5C20.99 8.05 20.54 8.5 19.99 8.5H14.36C11.8 8.5 10.5 9.81 10.5 12.38V21.5C10.5 22.05 10.05 22.5 9.50001 22.5H7.55001C7.15001 22.5 6.83001 22.18 6.83001 21.79C6.83001 21.39 7.15001 21.08 7.55001 21.08H9.50001V17.25H6.00001C3.78001 17.14 2.01001 15.31 2.01001 13.06V6.69C2.01001 4.38 3.89001 2.5 6.21001 2.5H16.8C19.11 2.5 20.99 4.38 20.99 6.69Z" fill="url(#paint1_linear_331_2989)"/>
<defs>
<linearGradient id="paint0_linear_331_2989" x1="17" y1="10" x2="17" y2="22.5" gradientUnits="userSpaceOnUse">
<stop stop-color="#CBCBCB"/>
<stop offset="1" stop-color="#757575"/>
</linearGradient>
<linearGradient id="paint1_linear_331_2989" x1="11.5" y1="2.5" x2="11.5" y2="22.5" gradientUnits="userSpaceOnUse">
<stop stop-color="#CBCBCB"/>
<stop offset="1" stop-color="#757575"/>
</linearGradient>
</defs>
</svg>
