<svg width="24" height="25" viewBox="0 0 24 25" fill="none" xmlns="http://www.w3.org/2000/svg">
<path d="M16.19 2.5H7.81C4.17 2.5 2 4.67 2 8.31V16.68C2 20.33 4.17 22.5 7.81 22.5H16.18C19.82 22.5 21.99 20.33 21.99 16.69V8.31C22 4.67 19.83 2.5 16.19 2.5ZM12 18.75C10.21 18.75 8.81 17.86 7.86 16.98V17.69C7.86 18.1 7.52 18.44 7.11 18.44C6.7 18.44 6.36 18.1 6.36 17.69V14.94C6.36 14.53 6.7 14.19 7.11 14.19H9.59C10 14.19 10.34 14.53 10.34 14.94C10.34 15.35 10 15.69 9.59 15.69H8.69C9.43 16.43 10.58 17.25 12 17.25C14.62 17.25 16.75 15.12 16.75 12.5C16.75 12.09 17.09 11.75 17.5 11.75C17.91 11.75 18.25 12.09 18.25 12.5C18.25 15.95 15.45 18.75 12 18.75ZM18.25 10.04C18.25 10.07 18.25 10.1 18.25 10.12C18.24 10.23 18.21 10.33 18.16 10.42C18.11 10.51 18.04 10.59 17.95 10.66C17.88 10.71 17.8 10.75 17.71 10.78C17.64 10.8 17.57 10.81 17.5 10.81H15.07C14.66 10.81 14.32 10.47 14.32 10.06C14.32 9.65 14.66 9.31 15.07 9.31H15.9C15.1 8.57 13.81 7.75 12.02 7.75C9.4 7.75 7.27 9.88 7.27 12.5C7.27 12.91 6.93 13.25 6.52 13.25C6.11 13.25 5.75 12.91 5.75 12.5C5.75 9.05 8.55 6.25 12 6.25C14.15 6.25 15.73 7.18 16.75 8.07V7.31C16.75 6.9 17.09 6.56 17.5 6.56C17.91 6.56 18.25 6.9 18.25 7.31V10.04Z" fill="url(#paint0_linear_342_14861)"/>
<defs>
<linearGradient id="paint0_linear_342_14861" x1="11.995" y1="2.5" x2="11.995" y2="22.5" gradientUnits="userSpaceOnUse">
<stop stop-color="#CBCBCB"/>
<stop offset="1" stop-color="#757575"/>
</linearGradient>
</defs>
</svg>
