<svg width="675" height="286" viewBox="0 0 675 286" fill="none" xmlns="http://www.w3.org/2000/svg">
<path d="M121.22 280V234.78H2.83122e-07V192.03L87.59 6.39999H139.84L52.25 192.03H121.22V120.78H167.58V192.03H193.23V234.78H167.58V280H121.22ZM337.211 285.7C317.831 285.7 300.731 281.583 285.911 273.35C271.091 264.99 259.501 253.4 251.141 238.58C242.908 223.76 238.791 206.66 238.791 187.28V99.12C238.791 79.74 242.908 62.64 251.141 47.82C259.501 33 271.091 21.4733 285.911 13.24C300.731 4.87999 317.831 0.699995 337.211 0.699995C356.591 0.699995 373.628 4.87999 388.321 13.24C403.141 21.4733 414.731 33 423.091 47.82C431.451 62.64 435.631 79.74 435.631 99.12V187.28C435.631 206.66 431.451 223.76 423.091 238.58C414.731 253.4 403.141 264.99 388.321 273.35C373.628 281.583 356.591 285.7 337.211 285.7ZM337.211 242.19C346.838 242.19 355.578 239.91 363.431 235.35C371.285 230.663 377.491 224.457 382.051 216.73C386.611 208.877 388.891 200.137 388.891 190.51V95.7C388.891 85.9467 386.611 77.2067 382.051 69.48C377.491 61.6267 371.285 55.42 363.431 50.86C355.578 46.1733 346.838 43.83 337.211 43.83C327.585 43.83 318.845 46.1733 310.991 50.86C303.138 55.42 296.931 61.6267 292.371 69.48C287.811 77.2067 285.531 85.9467 285.531 95.7V190.51C285.531 200.137 287.811 208.877 292.371 216.73C296.931 224.457 303.138 230.663 310.991 235.35C318.845 239.91 327.585 242.19 337.211 242.19ZM602.529 280V234.78H481.309V192.03L568.899 6.39999H621.149L533.559 192.03H602.529V120.78H648.889V192.03H674.539V234.78H648.889V280H602.529Z" fill="url(#paint0_linear_352_96)"/>
<defs>
<linearGradient id="paint0_linear_352_96" x1="633.567" y1="18.4431" x2="490.493" y2="426.122" gradientUnits="userSpaceOnUse">
<stop stop-color="#FF7700"/>
<stop offset="1" stop-color="#E10CFF"/>
</linearGradient>
</defs>
</svg>
