<svg width="28" height="28" viewBox="0 0 28 28" fill="none" xmlns="http://www.w3.org/2000/svg">
<path d="M19.586 0.666504H8.41268C3.55935 0.666504 0.666016 3.55984 0.666016 8.41317V19.5732C0.666016 24.4398 3.55935 27.3332 8.41268 27.3332H19.5727C24.426 27.3332 27.3193 24.4398 27.3193 19.5865V8.41317C27.3327 3.55984 24.4394 0.666504 19.586 0.666504ZM18.4793 17.0665C18.866 17.4532 18.866 18.0932 18.4793 18.4798C18.2793 18.6798 18.026 18.7732 17.7727 18.7732C17.5194 18.7732 17.266 18.6798 17.066 18.4798L13.9993 15.4132L10.9327 18.4798C10.7327 18.6798 10.4793 18.7732 10.226 18.7732C9.97268 18.7732 9.71935 18.6798 9.51935 18.4798C9.13268 18.0932 9.13268 17.4532 9.51935 17.0665L12.586 13.9998L9.51935 10.9332C9.13268 10.5465 9.13268 9.9065 9.51935 9.51984C9.90602 9.13317 10.546 9.13317 10.9327 9.51984L13.9993 12.5865L17.066 9.51984C17.4527 9.13317 18.0927 9.13317 18.4793 9.51984C18.866 9.9065 18.866 10.5465 18.4793 10.9332L15.4127 13.9998L18.4793 17.0665Z" fill="url(#paint0_linear_362_88272)"/>
<defs>
<linearGradient id="paint0_linear_362_88272" x1="25.0603" y1="1.87751" x2="2.86895" y2="26.1651" gradientUnits="userSpaceOnUse">
<stop stop-color="#FF7700"/>
<stop offset="1" stop-color="#E10CFF"/>
</linearGradient>
</defs>
</svg>
