<svg width="32" height="32" viewBox="0 0 32 32" fill="none" xmlns="http://www.w3.org/2000/svg">
<path d="M21.586 2.6665H10.4127C5.55935 2.6665 2.66602 5.55984 2.66602 10.4132V21.5732C2.66602 26.4398 5.55935 29.3332 10.4127 29.3332H21.5727C26.426 29.3332 29.3193 26.4398 29.3193 21.5865V10.4132C29.3327 5.55984 26.4394 2.6665 21.586 2.6665ZM22.666 22.9998H9.33268C8.78602 22.9998 8.33268 22.5465 8.33268 21.9998C8.33268 21.4532 8.78602 20.9998 9.33268 20.9998H22.666C23.2127 20.9998 23.666 21.4532 23.666 21.9998C23.666 22.5465 23.2127 22.9998 22.666 22.9998ZM22.666 16.9998H9.33268C8.78602 16.9998 8.33268 16.5465 8.33268 15.9998C8.33268 15.4532 8.78602 14.9998 9.33268 14.9998H22.666C23.2127 14.9998 23.666 15.4532 23.666 15.9998C23.666 16.5465 23.2127 16.9998 22.666 16.9998ZM22.666 10.9998H9.33268C8.78602 10.9998 8.33268 10.5465 8.33268 9.99984C8.33268 9.45317 8.78602 8.99984 9.33268 8.99984H22.666C23.2127 8.99984 23.666 9.45317 23.666 9.99984C23.666 10.5465 23.2127 10.9998 22.666 10.9998Z" fill="url(#paint0_linear_395_1540)"/>
<defs>
<linearGradient id="paint0_linear_395_1540" x1="27.0603" y1="3.87751" x2="4.86895" y2="28.1651" gradientUnits="userSpaceOnUse">
<stop stop-color="#FF7700"/>
<stop offset="1" stop-color="#E10CFF"/>
</linearGradient>
</defs>
</svg>
