<svg width="32" height="32" viewBox="0 0 32 32" fill="none" xmlns="http://www.w3.org/2000/svg">
<path d="M2.66699 15.2801V21.9467C2.66699 25.0001 5.13366 27.4667 8.18699 27.4667H23.8003C26.8537 27.4667 29.3337 24.9867 29.3337 21.9334V15.2801C29.3337 14.3867 28.6137 13.6667 27.7203 13.6667H4.28033C3.38699 13.6667 2.66699 14.3867 2.66699 15.2801ZM10.667 23.0001H8.00033C7.45366 23.0001 7.00033 22.5467 7.00033 22.0001C7.00033 21.4534 7.45366 21.0001 8.00033 21.0001H10.667C11.2137 21.0001 11.667 21.4534 11.667 22.0001C11.667 22.5467 11.2137 23.0001 10.667 23.0001ZM19.3337 23.0001H14.0003C13.4537 23.0001 13.0003 22.5467 13.0003 22.0001C13.0003 21.4534 13.4537 21.0001 14.0003 21.0001H19.3337C19.8803 21.0001 20.3337 21.4534 20.3337 22.0001C20.3337 22.5467 19.8803 23.0001 19.3337 23.0001Z" fill="url(#paint0_linear_260_2003)"/>
<path d="M18.0003 6.14678V10.0534C18.0003 10.9468 17.2803 11.6668 16.387 11.6668H4.28033C3.37366 11.6668 2.66699 10.9201 2.66699 10.0268C2.68033 8.52011 3.28033 7.14678 4.28033 6.14678C5.28033 5.14678 6.66699 4.53345 8.18699 4.53345H16.387C17.2803 4.53345 18.0003 5.25345 18.0003 6.14678Z" fill="url(#paint1_linear_260_2003)"/>
<path d="M26.6267 2.66675H22.7067C21.0133 2.66675 20 3.68008 20 5.37341V9.29341C20 10.9867 21.0133 12.0001 22.7067 12.0001H26.6267C28.32 12.0001 29.3333 10.9867 29.3333 9.29341V5.37341C29.3333 3.68008 28.32 2.66675 26.6267 2.66675ZM27.88 7.90675C27.7467 8.04008 27.5467 8.13341 27.3333 8.14675H25.4533L25.4667 10.0001C25.4533 10.2267 25.3733 10.4134 25.2133 10.5734C25.08 10.7067 24.88 10.8001 24.6667 10.8001C24.2267 10.8001 23.8667 10.4401 23.8667 10.0001V8.13341L22 8.14675C21.56 8.14675 21.2 7.77341 21.2 7.33341C21.2 6.89341 21.56 6.53341 22 6.53341L23.8667 6.54675V4.68008C23.8667 4.24008 24.2267 3.86675 24.6667 3.86675C25.1067 3.86675 25.4667 4.24008 25.4667 4.68008L25.4533 6.53341H27.3333C27.7733 6.53341 28.1333 6.89341 28.1333 7.33341C28.12 7.56008 28.0267 7.74675 27.88 7.90675Z" fill="url(#paint2_linear_260_2003)"/>
<defs>
<linearGradient id="paint0_linear_260_2003" x1="16.0003" y1="13.6667" x2="16.0003" y2="27.4667" gradientUnits="userSpaceOnUse">
<stop stop-color="#CBCBCB"/>
<stop offset="1" stop-color="#757575"/>
</linearGradient>
<linearGradient id="paint1_linear_260_2003" x1="10.3337" y1="4.53345" x2="10.3337" y2="11.6668" gradientUnits="userSpaceOnUse">
<stop stop-color="#CBCBCB"/>
<stop offset="1" stop-color="#757575"/>
</linearGradient>
<linearGradient id="paint2_linear_260_2003" x1="24.6667" y1="2.66675" x2="24.6667" y2="12.0001" gradientUnits="userSpaceOnUse">
<stop stop-color="#CBCBCB"/>
<stop offset="1" stop-color="#757575"/>
</linearGradient>
</defs>
</svg>
