<svg width="160" height="36" viewBox="0 0 160 36" fill="none" xmlns="http://www.w3.org/2000/svg">
<mask id="mask0_181_7" style="mask-type:luminance" maskUnits="userSpaceOnUse" x="0" y="0" width="33" height="34">
<path d="M6.93619 0H25.6645C29.4773 0 32.6007 3.16504 32.6007 7.02869V26.0068C32.6007 29.8704 29.4773 33.0354 25.6645 33.0354H6.93619C3.12338 33.0354 0 29.8704 0 26.0068V7.02869C0 3.16504 3.12338 0 6.93619 0Z" fill="white"/>
</mask>
<g mask="url(#mask0_181_7)">
<path d="M32.6067 0H0V33.0415H32.6067V0Z" fill="url(#paint0_linear_181_7)"/>
</g>
<path fill-rule="evenodd" clip-rule="evenodd" d="M22.0317 6.32386L10.5753 12.0282C10.4434 12.095 10.3655 12.2226 10.3655 12.3745V16.6087C10.3655 16.7424 10.4314 16.8639 10.5453 16.9368C10.6592 17.0097 10.7911 17.0157 10.911 16.955L22.3674 11.2992C22.4993 11.2324 22.5772 11.1048 22.5772 10.953V6.66406C22.5772 6.53041 22.5113 6.40891 22.3974 6.33601C22.2835 6.26311 22.1516 6.25704 22.0317 6.31779M22.0317 13.6684L10.5753 19.3728C10.4434 19.4396 10.3655 19.5672 10.3655 19.7191V24.3178C10.3655 24.4757 10.4494 24.6094 10.5933 24.6701L14.9936 26.6263C15.1135 26.6809 15.2454 26.6688 15.3533 26.5959C15.4612 26.523 15.5272 26.4076 15.5272 26.2739L15.5152 22.2766C15.5152 22.1247 15.5931 21.9972 15.725 21.9303L22.3674 18.6499C22.4993 18.5831 22.5772 18.4555 22.5772 18.3036V14.0147C22.5772 13.8811 22.5113 13.7596 22.3974 13.6867C22.2835 13.6138 22.1516 13.6077 22.0317 13.6684Z" fill="white"/>
<path d="M145.924 34.5603C144.809 34.5603 143.832 34.4024 143.004 34.0926V31.7112C143.406 31.857 143.784 31.9542 144.125 32.0028C144.467 32.0514 144.821 32.0757 145.174 32.0757C145.984 32.0757 146.619 31.9299 147.081 31.6444C147.542 31.3528 147.956 30.9154 148.31 30.3261C148.664 29.7368 149.059 28.9714 149.485 28.0298L142.039 11.0929H145.067L150.948 24.8891L157.009 11.0929H160L152.908 27.4527C152.314 28.8256 151.709 30.0467 151.091 31.1159C150.474 32.185 149.761 33.0295 148.951 33.643C148.142 34.2566 147.135 34.5664 145.924 34.5664M131.062 26.1405C132.297 26.1405 133.388 25.9157 134.342 25.4722C135.295 25.0288 136.098 24.4213 136.764 23.6498V20.3268H130.954C129.623 20.3268 128.676 20.5819 128.101 21.0862C127.531 21.5904 127.243 22.3619 127.243 23.3946C127.243 24.4274 127.585 25.1442 128.275 25.5451C128.964 25.94 129.893 26.1405 131.056 26.1405H131.062ZM130.313 28.5644C129.246 28.5644 128.257 28.37 127.357 27.9873C126.452 27.6045 125.727 27.0274 125.181 26.2741C124.636 25.5148 124.36 24.561 124.36 23.4007C124.36 21.8334 124.869 20.5516 125.895 19.5553C126.914 18.559 128.58 18.0548 130.882 18.0548H136.764V17.0099C136.764 16.0683 136.638 15.3271 136.392 14.7682C136.14 14.2154 135.672 13.8145 134.983 13.5775C134.294 13.3345 133.286 13.2191 131.956 13.2191C130.936 13.2191 129.947 13.3042 129 13.4743C128.047 13.6444 127.16 13.8691 126.326 14.1607V11.7065C127.088 11.4149 127.981 11.184 129.018 11.0018C130.049 10.8195 131.164 10.7284 132.351 10.7284C134.749 10.7284 136.548 11.2205 137.753 12.2107C138.952 13.1948 139.551 14.7986 139.551 17.016V28.212H137.093L136.877 26.262C136.14 27.0335 135.253 27.6106 134.204 27.9933C133.161 28.3761 131.866 28.5705 130.319 28.5705L130.313 28.5644ZM112.532 26.1769C114.432 26.1769 115.829 25.6302 116.722 24.5306C117.616 23.4371 118.059 21.7179 118.059 19.3852C118.059 17.0524 117.646 15.5397 116.812 14.5617C115.979 13.5897 114.576 13.0976 112.61 13.0976C111.639 13.0976 110.733 13.2677 109.9 13.6018C109.067 13.936 108.329 14.4584 107.688 15.157V24.476C108.281 25.0045 108.983 25.4236 109.792 25.7213C110.601 26.019 111.513 26.1709 112.538 26.1709L112.532 26.1769ZM104.762 36.0001V11.0807H107.256L107.472 12.885C108.257 12.1378 109.115 11.591 110.056 11.2448C110.997 10.8985 112.094 10.7223 113.353 10.7223C115.727 10.7223 117.592 11.3906 118.946 12.7271C120.301 14.0635 120.979 16.287 120.979 19.3912C120.979 22.4955 120.301 24.7736 118.946 26.2863C117.592 27.805 115.715 28.5644 113.317 28.5644C111.105 28.5644 109.229 28.0237 107.688 26.9363V36.0001H104.762ZM98.0599 28.5644C96.1116 28.5644 94.6668 28.048 93.7316 27.0092C92.7903 25.9765 92.3227 24.5671 92.3227 22.7811V14.8351H89.9367V11.0807H92.3227V7.39935L97.1367 5.95351V11.0807H101.411L101.123 14.8351H97.1307V22.453C97.1307 23.3946 97.3465 24.0386 97.7722 24.3848C98.1978 24.7311 98.8633 24.9073 99.7685 24.9073C100.434 24.9073 101.123 24.7858 101.837 24.5489V27.9083C101.315 28.127 100.746 28.2849 100.128 28.3943C99.5107 28.5036 98.8213 28.5583 98.0599 28.5583V28.5644ZM81.0642 28.5644C79.8052 28.5644 78.6062 28.4733 77.4672 28.291C76.3281 28.1088 75.4109 27.8901 74.7215 27.6228V23.5769C75.5548 23.911 76.49 24.1722 77.5391 24.3545C78.5822 24.5367 79.5474 24.6278 80.4287 24.6278C81.6157 24.6278 82.455 24.5549 82.9406 24.4091C83.4262 24.2633 83.672 23.9414 83.672 23.4311C83.672 22.854 83.3003 22.4348 82.5509 22.1675C81.8015 21.9002 80.6925 21.5296 79.2177 21.0497C77.671 20.5212 76.484 19.8833 75.6567 19.1361C74.8234 18.3889 74.4097 17.2832 74.4097 15.8131C74.4097 14.1729 74.9972 12.9154 76.1723 12.0406C77.3473 11.1597 79.2417 10.7223 81.8555 10.7223C82.8986 10.7223 83.8878 10.8013 84.811 10.9593C85.7402 11.1172 86.5196 11.3055 87.161 11.5181V15.5276C86.5196 15.2117 85.7822 14.9809 84.9489 14.8229C84.1156 14.665 83.3422 14.586 82.6348 14.586C81.6157 14.586 80.8004 14.6589 80.1949 14.8047C79.5894 14.9505 79.2836 15.2603 79.2836 15.7463C79.2836 16.2748 79.6134 16.6515 80.2668 16.8641C80.9203 17.0828 81.9334 17.4047 83.3123 17.8361C84.6671 18.2431 85.7223 18.6926 86.4836 19.1726C87.245 19.6525 87.7785 20.2235 88.0903 20.8857C88.402 21.5478 88.5519 22.374 88.5519 23.3582C88.5519 26.827 86.058 28.5583 81.0701 28.5583L81.0642 28.5644ZM61.9941 25.3507C63.0612 25.3507 63.9905 25.1685 64.7758 24.8101C65.5611 24.4517 66.1786 23.99 66.6282 23.4371V20.7277H61.7483C59.8719 20.7277 58.9307 21.5114 58.9307 23.0727C58.9307 24.6339 59.9498 25.3507 61.9941 25.3507ZM60.6752 28.5644C59.6081 28.5644 58.613 28.3639 57.7017 27.969C56.7845 27.5742 56.0531 26.9788 55.4896 26.2012C54.932 25.4176 54.6503 24.4395 54.6503 23.261C54.6503 21.5782 55.2378 20.2296 56.4128 19.2151C57.5878 18.2066 59.3264 17.6963 61.6344 17.6963H66.6222V17.2286C66.6222 16.1715 66.3285 15.4243 65.747 14.9869C65.1655 14.5556 63.9965 14.3369 62.2339 14.3369C60.3095 14.3369 58.4571 14.6407 56.6766 15.2421V11.8097C57.4619 11.4938 58.4151 11.2387 59.5482 11.0322C60.6752 10.8256 61.9042 10.7223 63.2351 10.7223C65.777 10.7223 67.7433 11.2448 69.1341 12.2957C70.525 13.3406 71.2204 15.0234 71.2204 17.3318V28.1999H67.0479L66.7961 26.6447C66.1307 27.2461 65.3094 27.7139 64.3382 28.0541C63.361 28.3882 62.138 28.5583 60.6692 28.5583L60.6752 28.5644ZM44.9924 28.1999V14.8351H42.6423V11.0807H44.9924V9.3494C44.9924 7.56944 45.49 6.11146 46.4911 4.98153C47.4863 3.85159 48.961 3.28662 50.9094 3.28662C51.6948 3.28662 52.3962 3.34737 53.0136 3.46887C53.6311 3.59037 54.2007 3.76047 54.7222 3.97309V7.33252C54.3685 7.21102 54.0208 7.11382 53.6911 7.04093C53.3614 6.96803 52.9897 6.93158 52.588 6.93158C51.5689 6.93158 50.8495 7.1199 50.4298 7.49047C50.0162 7.86104 49.8063 8.50498 49.8063 9.4223V11.0807H54.0808L53.8649 14.8351H49.8003V28.1999H44.9864H44.9924Z" fill="#2B2B2A"/>
<defs>
<linearGradient id="paint0_linear_181_7" x1="29.843" y1="1.50051" x2="2.3173" y2="31.2447" gradientUnits="userSpaceOnUse">
<stop stop-color="#FF7700"/>
<stop offset="1" stop-color="#E10CFF"/>
</linearGradient>
</defs>
</svg>
