<svg width="20" height="21" viewBox="0 0 20 21" fill="none" xmlns="http://www.w3.org/2000/svg">
<path d="M14.19 0.5H5.81C2.17 0.5 0 2.67 0 6.31V14.68C0 18.33 2.17 20.5 5.81 20.5H14.18C17.82 20.5 19.99 18.33 19.99 14.69V6.31C20 2.67 17.83 0.5 14.19 0.5ZM6.64 11.31L11.02 6.93H8.59C8.18 6.93 7.84 6.59 7.84 6.18C7.84 5.77 8.18 5.43 8.59 5.43H12.83C12.93 5.43 13.02 5.45 13.12 5.49C13.3 5.57 13.45 5.71 13.53 5.9C13.57 5.99 13.59 6.09 13.59 6.19V10.43C13.59 10.84 13.25 11.18 12.84 11.18C12.43 11.18 12.09 10.84 12.09 10.43V8L7.7 12.37C7.55 12.52 7.36 12.59 7.17 12.59C6.98 12.59 6.79 12.52 6.64 12.37C6.35 12.08 6.35 11.6 6.64 11.31ZM16.24 15.72C14.23 16.39 12.12 16.73 10 16.73C7.88 16.73 5.77 16.39 3.76 15.72C3.37 15.59 3.16 15.16 3.29 14.77C3.42 14.38 3.84 14.16 4.24 14.3C7.96 15.54 12.05 15.54 15.77 14.3C16.16 14.17 16.59 14.38 16.72 14.77C16.84 15.17 16.63 15.59 16.24 15.72Z" fill="url(#paint0_linear_185_645)"/>
<defs>
<linearGradient id="paint0_linear_185_645" x1="9.99502" y1="0.5" x2="9.99502" y2="20.5" gradientUnits="userSpaceOnUse">
<stop stop-color="#CBCBCB"/>
<stop offset="1" stop-color="#757575"/>
</linearGradient>
</defs>
</svg>
