<svg width="39" height="39" viewBox="0 0 39 39" fill="none" xmlns="http://www.w3.org/2000/svg">
<rect x="0.5" y="0.5" width="38" height="38" rx="19" stroke="#A0A0A0"/>
<path d="M19.44 9.70995L17.03 15.32H14.62C14.22 15.32 13.83 15.35 13.45 15.43L14.45 13.03L14.49 12.94L14.55 12.78C14.58 12.71 14.6 12.65 14.63 12.6C15.79 9.90995 17.09 9.06995 19.44 9.70995Z" fill="url(#paint0_linear_333_13508)"/>
<path d="M26.23 15.59L26.21 15.58C25.61 15.41 25 15.32 24.38 15.32H18.12L20.37 10.09L20.4 10.02C20.54 10.07 20.69 10.14 20.84 10.19L23.05 11.12C24.28 11.63 25.14 12.16 25.67 12.8C25.76 12.92 25.84 13.03 25.92 13.16C26.01 13.3 26.08 13.44 26.12 13.59C26.16 13.68 26.19 13.76 26.21 13.85C26.36 14.36 26.37 14.94 26.23 15.59Z" fill="url(#paint1_linear_333_13508)"/>
<path d="M25.79 17.0199C25.34 16.8899 24.87 16.8199 24.38 16.8199H14.62C13.94 16.8199 13.3 16.9499 12.7 17.2099C10.96 17.9599 9.74001 19.6899 9.74001 21.6999V23.6499C9.74001 23.8899 9.76001 24.1199 9.79001 24.3599C10.01 27.5399 11.71 29.2399 14.89 29.4499C15.12 29.4799 15.35 29.4999 15.6 29.4999H23.4C27.1 29.4999 29.05 27.7399 29.24 24.2399C29.25 24.0499 29.26 23.8499 29.26 23.6499V21.6999C29.26 19.4899 27.79 17.6299 25.79 17.0199ZM22 23.6899H20.25V25.4999C20.25 25.9099 19.91 26.2499 19.5 26.2499C19.09 26.2499 18.75 25.9099 18.75 25.4999V23.6899H17C16.59 23.6899 16.25 23.3599 16.25 22.9399C16.25 22.5299 16.59 22.1899 17 22.1899H18.75V20.4999C18.75 20.0899 19.09 19.7499 19.5 19.7499C19.91 19.7499 20.25 20.0899 20.25 20.4999V22.1899H22C22.41 22.1899 22.75 22.5299 22.75 22.9399C22.75 23.3599 22.41 23.6899 22 23.6899Z" fill="url(#paint2_linear_333_13508)"/>
<defs>
<linearGradient id="paint0_linear_333_13508" x1="16.445" y1="9.50598" x2="16.445" y2="15.43" gradientUnits="userSpaceOnUse">
<stop stop-color="#CBCBCB"/>
<stop offset="1" stop-color="#757575"/>
</linearGradient>
<linearGradient id="paint1_linear_333_13508" x1="22.2245" y1="10.02" x2="22.2245" y2="15.59" gradientUnits="userSpaceOnUse">
<stop stop-color="#CBCBCB"/>
<stop offset="1" stop-color="#757575"/>
</linearGradient>
<linearGradient id="paint2_linear_333_13508" x1="19.5" y1="16.8199" x2="19.5" y2="29.4999" gradientUnits="userSpaceOnUse">
<stop stop-color="#CBCBCB"/>
<stop offset="1" stop-color="#757575"/>
</linearGradient>
</defs>
</svg>
