<svg width="39" height="39" viewBox="0 0 39 39" fill="none" xmlns="http://www.w3.org/2000/svg">
<rect x="0.5" y="0.5" width="38" height="38" rx="19" stroke="#A0A0A0"/>
<path d="M9.5 18.96V23.96C9.5 26.25 11.35 28.1 13.64 28.1H25.35C27.64 28.1 29.5 26.24 29.5 23.95V18.96C29.5 18.29 28.96 17.75 28.29 17.75H10.71C10.04 17.75 9.5 18.29 9.5 18.96ZM15.5 24.75H13.5C13.09 24.75 12.75 24.41 12.75 24C12.75 23.59 13.09 23.25 13.5 23.25H15.5C15.91 23.25 16.25 23.59 16.25 24C16.25 24.41 15.91 24.75 15.5 24.75ZM22 24.75H18C17.59 24.75 17.25 24.41 17.25 24C17.25 23.59 17.59 23.25 18 23.25H22C22.41 23.25 22.75 23.59 22.75 24C22.75 24.41 22.41 24.75 22 24.75Z" fill="url(#paint0_linear_290_6263)"/>
<path d="M21 12.11V15.04C21 15.71 20.46 16.25 19.79 16.25H10.71C10.03 16.25 9.5 15.69 9.5 15.02C9.51 13.89 9.96 12.86 10.71 12.11C11.46 11.36 12.5 10.9 13.64 10.9H19.79C20.46 10.9 21 11.44 21 12.11Z" fill="url(#paint1_linear_290_6263)"/>
<path d="M27.47 9.5H24.53C23.26 9.5 22.5 10.26 22.5 11.53V14.47C22.5 15.74 23.26 16.5 24.53 16.5H27.47C28.74 16.5 29.5 15.74 29.5 14.47V11.53C29.5 10.26 28.74 9.5 27.47 9.5ZM28.13 11.95L25.76 14.72C25.67 14.83 25.53 14.9 25.39 14.9C25.38 14.9 25.38 14.9 25.37 14.9C25.23 14.9 25.1 14.85 25 14.75L23.9 13.67C23.7 13.47 23.7 13.14 23.9 12.94C24.1 12.74 24.43 12.73 24.63 12.94L25.33 13.63L27.33 11.29C27.52 11.07 27.84 11.05 28.06 11.23C28.29 11.41 28.31 11.74 28.13 11.95Z" fill="url(#paint2_linear_290_6263)"/>
<defs>
<linearGradient id="paint0_linear_290_6263" x1="19.5" y1="17.75" x2="19.5" y2="28.1" gradientUnits="userSpaceOnUse">
<stop stop-color="#CBCBCB"/>
<stop offset="1" stop-color="#757575"/>
</linearGradient>
<linearGradient id="paint1_linear_290_6263" x1="15.25" y1="10.9" x2="15.25" y2="16.25" gradientUnits="userSpaceOnUse">
<stop stop-color="#CBCBCB"/>
<stop offset="1" stop-color="#757575"/>
</linearGradient>
<linearGradient id="paint2_linear_290_6263" x1="26" y1="9.5" x2="26" y2="16.5" gradientUnits="userSpaceOnUse">
<stop stop-color="#CBCBCB"/>
<stop offset="1" stop-color="#757575"/>
</linearGradient>
</defs>
</svg>
