<svg width="39" height="39" viewBox="0 0 39 39" fill="none" xmlns="http://www.w3.org/2000/svg">
<rect x="0.5" y="0.5" width="38" height="38" rx="19" stroke="#A0A0A0"/>
<path d="M29.5 28.75C29.5 29.16 29.16 29.5 28.75 29.5H10.25C9.84 29.5 9.5 29.16 9.5 28.75C9.5 28.34 9.84 28 10.25 28H28.75C29.16 28 29.5 28.34 29.5 28.75Z" fill="url(#paint0_linear_342_15217)"/>
<path d="M22.89 12.02L12.15 22.76C11.74 23.17 11.08 23.17 10.68 22.76H10.67C9.28 21.36 9.28 19.1 10.67 17.71L17.82 10.56C19.22 9.16001 21.48 9.16001 22.88 10.56C23.29 10.95 23.29 11.62 22.89 12.02Z" fill="url(#paint1_linear_342_15217)"/>
<path d="M28.32 15.99L25.27 12.94C24.86 12.53 24.2 12.53 23.8 12.94L13.06 23.68C12.65 24.08 12.65 24.74 13.06 25.15L16.11 28.21C17.51 29.6 19.77 29.6 21.17 28.21L28.31 21.06C29.73 19.66 29.73 17.39 28.32 15.99ZM20.26 25.02L19.05 26.24C18.8 26.49 18.39 26.49 18.13 26.24C17.88 25.99 17.88 25.58 18.13 25.32L19.35 24.1C19.59 23.86 20.01 23.86 20.26 24.1C20.51 24.35 20.51 24.78 20.26 25.02ZM24.23 21.05L21.79 23.5C21.54 23.74 21.13 23.74 20.87 23.5C20.62 23.25 20.62 22.84 20.87 22.58L23.32 20.13C23.56 19.89 23.98 19.89 24.23 20.13C24.48 20.39 24.48 20.8 24.23 21.05Z" fill="url(#paint2_linear_342_15217)"/>
<defs>
<linearGradient id="paint0_linear_342_15217" x1="19.5" y1="28" x2="19.5" y2="29.5" gradientUnits="userSpaceOnUse">
<stop stop-color="#CBCBCB"/>
<stop offset="1" stop-color="#757575"/>
</linearGradient>
<linearGradient id="paint1_linear_342_15217" x1="16.4081" y1="9.51001" x2="16.4081" y2="23.0675" gradientUnits="userSpaceOnUse">
<stop stop-color="#CBCBCB"/>
<stop offset="1" stop-color="#757575"/>
</linearGradient>
<linearGradient id="paint2_linear_342_15217" x1="21.0644" y1="12.6325" x2="21.0644" y2="29.2525" gradientUnits="userSpaceOnUse">
<stop stop-color="#CBCBCB"/>
<stop offset="1" stop-color="#757575"/>
</linearGradient>
</defs>
</svg>
