<svg width="39" height="39" viewBox="0 0 39 39" fill="none" xmlns="http://www.w3.org/2000/svg">
<rect x="0.5" y="0.5" width="38" height="38" rx="19" stroke="#A0A0A0"/>
<path d="M28.59 14.48C27.74 13.54 26.33 13.07 24.26 13.07H24.02V13.03C24.02 11.35 24.02 9.26999 20.26 9.26999H18.74C14.98 9.26999 14.98 11.35 14.98 13.03V13.07H14.74C12.67 13.07 11.25 13.54 10.41 14.48C9.42004 15.59 9.45004 17.06 9.55004 18.07L9.56004 18.14L9.62912 18.946C9.64232 19.0999 9.72586 19.2392 9.85558 19.3231C10.1393 19.5067 10.4411 19.6995 10.73 19.86C10.87 19.95 11.02 20.03 11.17 20.11C12.3 20.73 13.51 21.22 14.75 21.56C14.78 24.15 16.9 26.25 19.5 26.25C22.12 26.25 24.25 24.12 24.25 21.5V21.46C25.51 21.08 26.72 20.55 27.85 19.89C27.91 19.86 27.95 19.83 28 19.8C28.3947 19.5855 28.804 19.3048 29.1776 19.0399C29.2938 18.9575 29.3688 18.829 29.3842 18.6872L29.45 18.08C29.46 18.02 29.46 17.97 29.47 17.9C29.55 16.9 29.53 15.52 28.59 14.48ZM16.41 13.03C16.41 11.33 16.41 10.69 18.74 10.69H20.26C22.59 10.69 22.59 11.33 22.59 13.03V13.07H16.41V13.03ZM19.5 24.75C17.85 24.75 16.48 23.51 16.28 21.91C16.26 21.78 16.25 21.64 16.25 21.5C16.25 19.71 17.71 18.25 19.5 18.25C21.29 18.25 22.75 19.71 22.75 21.5C22.75 21.62 22.74 21.73 22.73 21.84V21.85C22.55 23.48 21.17 24.75 19.5 24.75Z" fill="url(#paint0_linear_290_6245)"/>
<path d="M18.9299 23.53C18.7399 23.53 18.5499 23.46 18.3999 23.31L17.4099 22.33C17.1199 22.04 17.1199 21.56 17.4099 21.27C17.6999 20.98 18.1799 20.98 18.4699 21.27L18.9499 21.75L20.5599 20.27C20.8599 19.99 21.3399 20.01 21.6199 20.31C21.8999 20.61 21.8799 21.09 21.5799 21.37L19.4499 23.34C19.2899 23.46 19.1099 23.53 18.9299 23.53Z" fill="url(#paint1_linear_290_6245)"/>
<path d="M28.5416 21.2311C28.7903 21.0929 29.1129 21.2931 29.087 21.5765L28.7316 25.4611C28.5216 27.4611 27.7016 29.5011 23.3016 29.5011H15.6816C11.2816 29.5011 10.4616 27.4611 10.2616 25.4711L9.91569 21.7678C9.88884 21.4802 10.1963 21.286 10.4516 21.4211C11.2316 21.8511 12.0416 22.2311 12.8716 22.5311C13.1816 22.6411 13.4016 22.9011 13.4916 23.2211C14.2416 25.8211 16.6616 27.7511 19.5016 27.7511C22.3916 27.7511 24.8316 25.7811 25.5416 23.0811C25.6216 22.7611 25.8416 22.5011 26.1516 22.3811C26.9916 22.0511 27.7916 21.6611 28.5416 21.2311Z" fill="url(#paint2_linear_290_6245)"/>
<defs>
<linearGradient id="paint0_linear_290_6245" x1="19.5013" y1="9.26999" x2="19.5013" y2="26.25" gradientUnits="userSpaceOnUse">
<stop stop-color="#CBCBCB"/>
<stop offset="1" stop-color="#757575"/>
</linearGradient>
<linearGradient id="paint1_linear_290_6245" x1="19.5052" y1="20.0719" x2="19.5052" y2="23.53" gradientUnits="userSpaceOnUse">
<stop stop-color="#CBCBCB"/>
<stop offset="1" stop-color="#757575"/>
</linearGradient>
<linearGradient id="paint2_linear_290_6245" x1="19.5016" y1="20.8711" x2="19.5016" y2="29.5011" gradientUnits="userSpaceOnUse">
<stop stop-color="#CBCBCB"/>
<stop offset="1" stop-color="#757575"/>
</linearGradient>
</defs>
</svg>
