<svg width="39" height="39" viewBox="0 0 39 39" fill="none" xmlns="http://www.w3.org/2000/svg">
<rect x="0.5" y="0.5" width="38" height="38" rx="19" stroke="#A0A0A0"/>
<path d="M20.25 23.42H20.9C21.55 23.42 22.09 22.84 22.09 22.14C22.09 21.27 21.78 21.1 21.27 20.92L20.26 20.57V23.42H20.25Z" fill="url(#paint0_linear_290_6274)"/>
<path d="M19.4701 9.39998C13.9501 9.41998 9.48007 13.91 9.50007 19.43C9.52007 24.95 14.0101 29.42 19.5301 29.4C25.0501 29.38 29.5201 24.89 29.5001 19.37C29.4801 13.85 24.9901 9.38998 19.4701 9.39998ZM21.7601 19.5C22.5401 19.77 23.5901 20.35 23.5901 22.14C23.5901 23.68 22.3801 24.92 20.9001 24.92H20.2501V25.5C20.2501 25.91 19.9101 26.25 19.5001 26.25C19.0901 26.25 18.7501 25.91 18.7501 25.5V24.92H18.3901C16.7501 24.92 15.4201 23.54 15.4201 21.84C15.4201 21.43 15.7601 21.09 16.1701 21.09C16.5801 21.09 16.9201 21.43 16.9201 21.84C16.9201 22.71 17.5801 23.42 18.3901 23.42H18.7501V20.04L17.2401 19.5C16.4601 19.23 15.4101 18.65 15.4101 16.86C15.4101 15.32 16.6201 14.08 18.1001 14.08H18.7501V13.5C18.7501 13.09 19.0901 12.75 19.5001 12.75C19.9101 12.75 20.2501 13.09 20.2501 13.5V14.08H20.6101C22.2501 14.08 23.5801 15.46 23.5801 17.16C23.5801 17.57 23.2401 17.91 22.8301 17.91C22.4201 17.91 22.0801 17.57 22.0801 17.16C22.0801 16.29 21.4201 15.58 20.6101 15.58H20.2501V18.96L21.7601 19.5Z" fill="url(#paint1_linear_290_6274)"/>
<path d="M16.9192 16.87C16.9192 17.74 17.2292 17.91 17.7392 18.09L18.7492 18.44V15.58H18.0992C17.4492 15.58 16.9192 16.16 16.9192 16.87Z" fill="url(#paint2_linear_290_6274)"/>
<defs>
<linearGradient id="paint0_linear_290_6274" x1="21.17" y1="20.57" x2="21.17" y2="23.42" gradientUnits="userSpaceOnUse">
<stop stop-color="#CBCBCB"/>
<stop offset="1" stop-color="#757575"/>
</linearGradient>
<linearGradient id="paint1_linear_290_6274" x1="19.5001" y1="9.39996" x2="19.5001" y2="29.4" gradientUnits="userSpaceOnUse">
<stop stop-color="#CBCBCB"/>
<stop offset="1" stop-color="#757575"/>
</linearGradient>
<linearGradient id="paint2_linear_290_6274" x1="17.8342" y1="15.58" x2="17.8342" y2="18.44" gradientUnits="userSpaceOnUse">
<stop stop-color="#CBCBCB"/>
<stop offset="1" stop-color="#757575"/>
</linearGradient>
</defs>
</svg>
