<svg width="39" height="39" viewBox="0 0 39 39" fill="none" xmlns="http://www.w3.org/2000/svg">
<rect x="0.5" y="0.5" width="38" height="38" rx="19" stroke="#A0A0A0"/>
<path d="M26.8399 21.99L25.8399 20.33C25.6299 19.96 25.4399 19.26 25.4399 18.85V16.32C25.4399 13.97 24.0599 11.94 22.0699 10.99C21.5499 10.07 20.5899 9.5 19.4899 9.5C18.3999 9.5 17.4199 10.09 16.8999 11.02C14.9499 11.99 13.5999 14 13.5999 16.32V18.85C13.5999 19.26 13.4099 19.96 13.1999 20.32L12.1899 21.99C11.7899 22.66 11.6999 23.4 11.9499 24.08C12.1899 24.75 12.7599 25.27 13.4999 25.52C15.4399 26.18 17.4799 26.5 19.5199 26.5C21.5599 26.5 23.5999 26.18 25.5399 25.53C26.2399 25.3 26.7799 24.77 27.0399 24.08C27.2999 23.39 27.2299 22.63 26.8399 21.99Z" fill="url(#paint0_linear_342_15207)"/>
<path d="M22.3301 27.51C21.9101 28.67 20.8001 29.5 19.5001 29.5C18.7101 29.5 17.9301 29.18 17.3801 28.61C17.0601 28.31 16.8201 27.91 16.6801 27.5C16.8101 27.52 16.9401 27.53 17.0801 27.55C17.3101 27.58 17.5501 27.61 17.7901 27.63C18.3601 27.68 18.9401 27.71 19.5201 27.71C20.0901 27.71 20.6601 27.68 21.2201 27.63C21.4301 27.61 21.6401 27.6 21.8401 27.57C22.0001 27.55 22.1601 27.53 22.3301 27.51Z" fill="url(#paint1_linear_342_15207)"/>
<defs>
<linearGradient id="paint0_linear_342_15207" x1="19.5024" y1="9.5" x2="19.5024" y2="26.5" gradientUnits="userSpaceOnUse">
<stop stop-color="#CBCBCB"/>
<stop offset="1" stop-color="#757575"/>
</linearGradient>
<linearGradient id="paint1_linear_342_15207" x1="19.5051" y1="27.5" x2="19.5051" y2="29.5" gradientUnits="userSpaceOnUse">
<stop stop-color="#CBCBCB"/>
<stop offset="1" stop-color="#757575"/>
</linearGradient>
</defs>
</svg>
