<svg width="39" height="39" viewBox="0 0 39 39" fill="none" xmlns="http://www.w3.org/2000/svg">
<rect x="0.5" y="0.5" width="38" height="38" rx="19" stroke="#A0A0A0"/>
<path d="M20.99 20.88H18.5C18.2 20.88 17.96 21.12 17.96 21.42C17.96 21.72 18.2 21.96 18.5 21.96H20.99C21.29 21.96 21.53 21.72 21.53 21.42C21.53 21.12 21.29 20.88 20.99 20.88Z" fill="url(#paint0_linear_290_6230)"/>
<path d="M16.9399 20.88H15.6899C15.3899 20.88 15.1499 21.12 15.1499 21.42C15.1499 21.72 15.3899 21.96 15.6899 21.96H16.9399C17.2399 21.96 17.4799 21.72 17.4799 21.42C17.4799 21.12 17.2399 20.88 16.9399 20.88Z" fill="url(#paint1_linear_290_6230)"/>
<path d="M26.04 11.72L20.54 9.66C19.97 9.45 19.04 9.45 18.47 9.66L12.97 11.72C11.91 12.12 11.05 13.36 11.05 14.49V22.59C11.05 23.4 11.58 24.47 12.23 24.95L17.73 29.06C18.7 29.79 20.29 29.79 21.26 29.06L26.76 24.95C27.41 24.46 27.9401 23.4 27.9401 22.59V14.49C27.9501 13.36 27.09 12.12 26.04 11.72ZM25.67 21.15C25.65 23.22 25.08 23.74 22.93 23.74H16.08C13.89 23.74 13.34 23.2 13.34 21.03V18.7C13.34 18.42 13.56 18.2 13.84 18.2H25.17C25.45 18.2 25.67 18.42 25.67 18.7V21.15ZM25.67 16.61C25.67 16.89 25.45 17.11 25.17 17.11H13.84C13.56 17.11 13.34 16.89 13.34 16.61V15.97C13.34 14.01 13.8 13.38 15.51 13.27C15.69 13.27 15.88 13.26 16.08 13.26H22.93C25.12 13.26 25.67 13.8 25.67 15.97V16.61Z" fill="url(#paint2_linear_290_6230)"/>
<defs>
<linearGradient id="paint0_linear_290_6230" x1="19.745" y1="20.88" x2="19.745" y2="21.96" gradientUnits="userSpaceOnUse">
<stop stop-color="#CBCBCB"/>
<stop offset="1" stop-color="#757575"/>
</linearGradient>
<linearGradient id="paint1_linear_290_6230" x1="16.3149" y1="20.88" x2="16.3149" y2="21.96" gradientUnits="userSpaceOnUse">
<stop stop-color="#CBCBCB"/>
<stop offset="1" stop-color="#757575"/>
</linearGradient>
<linearGradient id="paint2_linear_290_6230" x1="19.4951" y1="9.5025" x2="19.4951" y2="29.6075" gradientUnits="userSpaceOnUse">
<stop stop-color="#CBCBCB"/>
<stop offset="1" stop-color="#757575"/>
</linearGradient>
</defs>
</svg>
