<svg width="39" height="39" viewBox="0 0 39 39" fill="none" xmlns="http://www.w3.org/2000/svg">
<rect x="0.5" y="0.5" width="38" height="38" rx="19" stroke="#A0A0A0"/>
<path d="M27.9202 16.5C27.7802 16.49 27.6002 16.48 27.4002 16.48C27.0102 16.48 26.7002 16.79 26.7002 17.18V21.83C26.7002 22.22 27.0102 22.53 27.4002 22.53C27.6002 22.53 27.7702 22.52 27.9402 22.51C29.5002 22.33 29.5002 21.23 29.5002 20.43V18.57C29.5002 17.77 29.5002 16.67 27.9202 16.5Z" fill="url(#paint0_linear_290_6170)"/>
<path d="M20.43 12.29H14.85C10.75 12.29 9.5 13.54 9.5 17.64V21.36C9.5 25.46 10.75 26.71 14.85 26.71H20.43C24.53 26.71 25.78 25.46 25.78 21.36V17.64C25.78 13.54 24.53 12.29 20.43 12.29ZM14.6 21.68C14.52 22.02 14.21 22.25 13.87 22.25C13.81 22.25 13.75 22.24 13.69 22.23C13.29 22.13 13.04 21.72 13.14 21.32C13.44 20.13 13.44 18.87 13.14 17.68C13.04 17.28 13.28 16.87 13.69 16.77C14.1 16.67 14.5 16.92 14.6 17.32C14.96 18.75 14.96 20.25 14.6 21.68ZM18.1 21.68C18.02 22.02 17.71 22.25 17.37 22.25C17.31 22.25 17.25 22.24 17.19 22.23C16.79 22.13 16.54 21.72 16.64 21.32C16.94 20.13 16.94 18.87 16.64 17.68C16.54 17.28 16.78 16.87 17.19 16.77C17.59 16.67 18 16.91 18.1 17.32C18.46 18.75 18.46 20.25 18.1 21.68ZM21.6 21.68C21.52 22.02 21.21 22.25 20.87 22.25C20.81 22.25 20.75 22.24 20.69 22.23C20.29 22.13 20.04 21.72 20.14 21.32C20.44 20.13 20.44 18.87 20.14 17.68C20.04 17.28 20.28 16.87 20.69 16.77C21.09 16.67 21.5 16.91 21.6 17.32C21.96 18.75 21.96 20.25 21.6 21.68Z" fill="url(#paint1_linear_290_6170)"/>
<defs>
<linearGradient id="paint0_linear_290_6170" x1="28.1002" y1="16.48" x2="28.1002" y2="22.53" gradientUnits="userSpaceOnUse">
<stop stop-color="#CBCBCB"/>
<stop offset="1" stop-color="#757575"/>
</linearGradient>
<linearGradient id="paint1_linear_290_6170" x1="17.64" y1="12.29" x2="17.64" y2="26.71" gradientUnits="userSpaceOnUse">
<stop stop-color="#CBCBCB"/>
<stop offset="1" stop-color="#757575"/>
</linearGradient>
</defs>
</svg>
