<svg width="39" height="39" viewBox="0 0 39 39" fill="none" xmlns="http://www.w3.org/2000/svg">
<rect x="0.5" y="0.5" width="38" height="38" rx="19" stroke="#A0A0A0"/>
<path d="M28.49 17.21C28.15 17.07 27.7 17 27.14 17H21.86C20.12 17 19.5 17.62 19.5 19.38V27.12C19.5 27.7 19.57 28.15 19.72 28.5C20.03 29.22 20.69 29.5 21.86 29.5H27.14C28.88 29.5 29.5 28.87 29.5 27.12V19.38C29.5 18.19 29.22 17.52 28.49 17.21ZM25.5 27.25H23.5C23.48 27.25 23.45 27.25 23.43 27.24C23.28 27.23 23.15 27.18 23.04 27.08C22.86 26.95 22.75 26.74 22.75 26.5C22.75 26.09 23.09 25.75 23.5 25.75H25.5C25.91 25.75 26.25 26.09 26.25 26.5C26.25 26.91 25.91 27.25 25.5 27.25Z" fill="url(#paint0_linear_290_6300)"/>
<path d="M28.49 13.69V14.5C28.49 15.05 28.04 15.5 27.49 15.5H21.86C19.3 15.5 18 16.81 18 19.38V28.5C18 29.05 17.55 29.5 17 29.5H15.05C14.65 29.5 14.33 29.18 14.33 28.79C14.33 28.39 14.65 28.08 15.05 28.08H17V24.25H13.5C11.28 24.14 9.51001 22.31 9.51001 20.06V13.69C9.51001 11.38 11.39 9.5 13.71 9.5H24.3C26.61 9.5 28.49 11.38 28.49 13.69Z" fill="url(#paint1_linear_290_6300)"/>
<defs>
<linearGradient id="paint0_linear_290_6300" x1="24.5" y1="17" x2="24.5" y2="29.5" gradientUnits="userSpaceOnUse">
<stop stop-color="#CBCBCB"/>
<stop offset="1" stop-color="#757575"/>
</linearGradient>
<linearGradient id="paint1_linear_290_6300" x1="19" y1="9.5" x2="19" y2="29.5" gradientUnits="userSpaceOnUse">
<stop stop-color="#CBCBCB"/>
<stop offset="1" stop-color="#757575"/>
</linearGradient>
</defs>
</svg>
