<svg width="39" height="39" viewBox="0 0 39 39" fill="none" xmlns="http://www.w3.org/2000/svg">
<rect x="0.5" y="0.5" width="38" height="38" rx="19" stroke="#A0A0A0"/>
<path d="M29.5 19.5C29.5 13.99 25.01 9.5 19.5 9.5C13.99 9.5 9.5 13.99 9.5 19.5C9.5 22.4 10.75 25.01 12.73 26.84C12.73 26.85 12.73 26.85 12.72 26.86C12.82 26.96 12.94 27.04 13.04 27.13C13.1 27.18 13.15 27.23 13.21 27.27C13.39 27.42 13.59 27.56 13.78 27.7C13.85 27.75 13.91 27.79 13.98 27.84C14.17 27.97 14.37 28.09 14.58 28.2C14.65 28.24 14.73 28.29 14.8 28.33C15 28.44 15.21 28.54 15.43 28.63C15.51 28.67 15.59 28.71 15.67 28.74C15.89 28.83 16.11 28.91 16.33 28.98C16.41 29.01 16.49 29.04 16.57 29.06C16.81 29.13 17.05 29.19 17.29 29.25C17.36 29.27 17.43 29.29 17.51 29.3C17.79 29.36 18.07 29.4 18.36 29.43C18.4 29.43 18.44 29.44 18.48 29.45C18.82 29.48 19.16 29.5 19.5 29.5C19.84 29.5 20.18 29.48 20.51 29.45C20.55 29.45 20.59 29.44 20.63 29.43C20.92 29.4 21.2 29.36 21.48 29.3C21.55 29.29 21.62 29.26 21.7 29.25C21.94 29.19 22.19 29.14 22.42 29.06C22.5 29.03 22.58 29 22.66 28.98C22.88 28.9 23.11 28.83 23.32 28.74C23.4 28.71 23.48 28.67 23.56 28.63C23.77 28.54 23.98 28.44 24.19 28.33C24.27 28.29 24.34 28.24 24.41 28.2C24.61 28.08 24.81 27.97 25.01 27.84C25.08 27.8 25.14 27.75 25.21 27.7C25.41 27.56 25.6 27.42 25.78 27.27C25.84 27.22 25.89 27.17 25.95 27.13C26.06 27.04 26.17 26.95 26.27 26.86C26.27 26.85 26.27 26.85 26.26 26.84C28.25 25.01 29.5 22.4 29.5 19.5ZM24.44 24.47C21.73 22.65 17.29 22.65 14.56 24.47C14.12 24.76 13.76 25.1 13.46 25.47C11.94 23.93 11 21.82 11 19.5C11 14.81 14.81 11 19.5 11C24.19 11 28 14.81 28 19.5C28 21.82 27.06 23.93 25.54 25.47C25.25 25.1 24.88 24.76 24.44 24.47Z" fill="url(#paint0_linear_290_6198)"/>
<path d="M19.5 14.43C17.43 14.43 15.75 16.11 15.75 18.18C15.75 20.21 17.34 21.86 19.45 21.92C19.48 21.92 19.52 21.92 19.54 21.92C19.56 21.92 19.59 21.92 19.61 21.92C19.62 21.92 19.63 21.92 19.63 21.92C21.65 21.85 23.24 20.21 23.25 18.18C23.25 16.11 21.57 14.43 19.5 14.43Z" fill="url(#paint1_linear_290_6198)"/>
<defs>
<linearGradient id="paint0_linear_290_6198" x1="19.5" y1="9.5" x2="19.5" y2="29.5" gradientUnits="userSpaceOnUse">
<stop stop-color="#CBCBCB"/>
<stop offset="1" stop-color="#757575"/>
</linearGradient>
<linearGradient id="paint1_linear_290_6198" x1="19.5" y1="14.43" x2="19.5" y2="21.92" gradientUnits="userSpaceOnUse">
<stop stop-color="#CBCBCB"/>
<stop offset="1" stop-color="#757575"/>
</linearGradient>
</defs>
</svg>
