<svg width="39" height="39" viewBox="0 0 39 39" fill="none" xmlns="http://www.w3.org/2000/svg">
<rect x="0.5" y="0.5" width="38" height="38" rx="19" stroke="#A0A0A0"/>
<path d="M29.5 26.5V29.5H9.5V26.5C9.5 25.95 9.95 25.5 10.5 25.5H28.5C29.05 25.5 29.5 25.95 29.5 26.5Z" fill="url(#paint0_linear_342_15228)" stroke="white" stroke-width="1.5" stroke-miterlimit="10" stroke-linecap="round" stroke-linejoin="round"/>
<path d="M14.5 18.5H12.5V25.5H14.5V18.5Z" fill="url(#paint1_linear_342_15228)"/>
<path d="M18.5 18.5H16.5V25.5H18.5V18.5Z" fill="url(#paint2_linear_342_15228)"/>
<path d="M22.5 18.5H20.5V25.5H22.5V18.5Z" fill="url(#paint3_linear_342_15228)"/>
<path d="M26.5 18.5H24.5V25.5H26.5V18.5Z" fill="url(#paint4_linear_342_15228)"/>
<path d="M30.5 30.25H8.5C8.09 30.25 7.75 29.91 7.75 29.5C7.75 29.09 8.09 28.75 8.5 28.75H30.5C30.91 28.75 31.25 29.09 31.25 29.5C31.25 29.91 30.91 30.25 30.5 30.25Z" fill="url(#paint5_linear_342_15228)"/>
<path d="M28.87 13.25L19.87 9.65003C19.67 9.57003 19.33 9.57003 19.13 9.65003L10.13 13.25C9.78 13.39 9.5 13.8 9.5 14.18V17.5C9.5 18.05 9.95 18.5 10.5 18.5H28.5C29.05 18.5 29.5 18.05 29.5 17.5V14.18C29.5 13.8 29.22 13.39 28.87 13.25ZM19.5 16C18.67 16 18 15.33 18 14.5C18 13.67 18.67 13 19.5 13C20.33 13 21 13.67 21 14.5C21 15.33 20.33 16 19.5 16Z" fill="url(#paint6_linear_342_15228)"/>
<defs>
<linearGradient id="paint0_linear_342_15228" x1="19.5" y1="25.5" x2="19.5" y2="29.5" gradientUnits="userSpaceOnUse">
<stop stop-color="#CBCBCB"/>
<stop offset="1" stop-color="#757575"/>
</linearGradient>
<linearGradient id="paint1_linear_342_15228" x1="13.5" y1="18.5" x2="13.5" y2="25.5" gradientUnits="userSpaceOnUse">
<stop stop-color="#CBCBCB"/>
<stop offset="1" stop-color="#757575"/>
</linearGradient>
<linearGradient id="paint2_linear_342_15228" x1="17.5" y1="18.5" x2="17.5" y2="25.5" gradientUnits="userSpaceOnUse">
<stop stop-color="#CBCBCB"/>
<stop offset="1" stop-color="#757575"/>
</linearGradient>
<linearGradient id="paint3_linear_342_15228" x1="21.5" y1="18.5" x2="21.5" y2="25.5" gradientUnits="userSpaceOnUse">
<stop stop-color="#CBCBCB"/>
<stop offset="1" stop-color="#757575"/>
</linearGradient>
<linearGradient id="paint4_linear_342_15228" x1="25.5" y1="18.5" x2="25.5" y2="25.5" gradientUnits="userSpaceOnUse">
<stop stop-color="#CBCBCB"/>
<stop offset="1" stop-color="#757575"/>
</linearGradient>
<linearGradient id="paint5_linear_342_15228" x1="19.5" y1="28.75" x2="19.5" y2="30.25" gradientUnits="userSpaceOnUse">
<stop stop-color="#CBCBCB"/>
<stop offset="1" stop-color="#757575"/>
</linearGradient>
<linearGradient id="paint6_linear_342_15228" x1="19.5" y1="9.59003" x2="19.5" y2="18.5" gradientUnits="userSpaceOnUse">
<stop stop-color="#CBCBCB"/>
<stop offset="1" stop-color="#757575"/>
</linearGradient>
</defs>
</svg>
