<svg width="39" height="39" viewBox="0 0 39 39" fill="none" xmlns="http://www.w3.org/2000/svg">
<rect x="0.5" y="0.5" width="38" height="38" rx="19" stroke="#A0A0A0"/>
<path d="M26.67 14.14C26.24 11.97 24.63 11.02 22.39 11.02H13.61C10.97 11.02 9.20999 12.34 9.20999 15.42V20.57C9.20999 22.79 10.12 24.09 11.62 24.65C11.84 24.73 12.08 24.8 12.33 24.84C12.73 24.93 13.16 24.97 13.61 24.97H22.4C25.04 24.97 26.8 23.65 26.8 20.57V15.42C26.8 14.95 26.76 14.53 26.67 14.14ZM13.03 19.5C13.03 19.91 12.69 20.25 12.28 20.25C11.87 20.25 11.53 19.91 11.53 19.5V16.5C11.53 16.09 11.87 15.75 12.28 15.75C12.69 15.75 13.03 16.09 13.03 16.5V19.5ZM18 20.64C16.54 20.64 15.36 19.46 15.36 18C15.36 16.54 16.54 15.36 18 15.36C19.46 15.36 20.64 16.54 20.64 18C20.64 19.46 19.46 20.64 18 20.64ZM24.46 19.5C24.46 19.91 24.12 20.25 23.71 20.25C23.3 20.25 22.96 19.91 22.96 19.5V16.5C22.96 16.09 23.3 15.75 23.71 15.75C24.12 15.75 24.46 16.09 24.46 16.5V19.5Z" fill="url(#paint0_linear_342_15246)"/>
<path d="M29.8 18.42V23.57C29.8 26.65 28.04 27.98 25.39 27.98H16.61C15.86 27.98 15.19 27.87 14.61 27.65C14.14 27.48 13.73 27.23 13.4 26.91C13.22 26.74 13.36 26.47 13.61 26.47H22.39C26.09 26.47 28.29 24.27 28.29 20.58V15.42C28.29 15.18 28.56 15.03 28.73 15.21C29.41 15.93 29.8 16.98 29.8 18.42Z" fill="url(#paint1_linear_342_15246)"/>
<defs>
<linearGradient id="paint0_linear_342_15246" x1="18.005" y1="11.02" x2="18.005" y2="24.97" gradientUnits="userSpaceOnUse">
<stop stop-color="#CBCBCB"/>
<stop offset="1" stop-color="#757575"/>
</linearGradient>
<linearGradient id="paint1_linear_342_15246" x1="21.5593" y1="15.1306" x2="21.5593" y2="27.98" gradientUnits="userSpaceOnUse">
<stop stop-color="#CBCBCB"/>
<stop offset="1" stop-color="#757575"/>
</linearGradient>
</defs>
</svg>
