<svg width="39" height="39" viewBox="0 0 39 39" fill="none" xmlns="http://www.w3.org/2000/svg">
<rect x="0.5" y="0.5" width="38" height="38" rx="19" stroke="#A0A0A0"/>
<path d="M19.5 9.5C13.99 9.5 9.5 13.99 9.5 19.5C9.5 25.01 13.99 29.5 19.5 29.5C25.01 29.5 29.5 25.01 29.5 19.5C29.5 13.99 25.01 9.5 19.5 9.5ZM23.85 23.07C23.71 23.31 23.46 23.44 23.2 23.44C23.07 23.44 22.94 23.41 22.82 23.33L19.72 21.48C18.95 21.02 18.38 20.01 18.38 19.12V15.02C18.38 14.61 18.72 14.27 19.13 14.27C19.54 14.27 19.88 14.61 19.88 15.02V19.12C19.88 19.48 20.18 20.01 20.49 20.19L23.59 22.04C23.95 22.25 24.07 22.71 23.85 23.07Z" fill="url(#paint0_linear_342_15198)"/>
<defs>
<linearGradient id="paint0_linear_342_15198" x1="19.5" y1="9.5" x2="19.5" y2="29.5" gradientUnits="userSpaceOnUse">
<stop stop-color="#CBCBCB"/>
<stop offset="1" stop-color="#757575"/>
</linearGradient>
</defs>
</svg>
