<svg width="24" height="25" viewBox="0 0 24 25" fill="none" xmlns="http://www.w3.org/2000/svg">
<path d="M12 2.49976C6.49 2.49976 2 6.98976 2 12.4998C2 18.0098 6.49 22.4998 12 22.4998C17.51 22.4998 22 18.0098 22 12.4998C22 6.98976 17.51 2.49976 12 2.49976ZM16.06 11.7698L12.53 15.2998C12.38 15.4498 12.19 15.5198 12 15.5198C11.81 15.5198 11.62 15.4498 11.47 15.2998L7.94 11.7698C7.65 11.4798 7.65 10.9998 7.94 10.7098C8.23 10.4198 8.71 10.4198 9 10.7098L12 13.7098L15 10.7098C15.29 10.4198 15.77 10.4198 16.06 10.7098C16.35 10.9998 16.35 11.4698 16.06 11.7698Z" fill="url(#paint0_linear_188_3440)"/>
<defs>
<linearGradient id="paint0_linear_188_3440" x1="12" y1="2.49976" x2="12" y2="22.4998" gradientUnits="userSpaceOnUse">
<stop stop-color="#CBCBCB"/>
<stop offset="1" stop-color="#757575"/>
</linearGradient>
</defs>
</svg>
