<svg width="25" height="24" viewBox="0 0 25 24" fill="none" xmlns="http://www.w3.org/2000/svg">
<path d="M22.5 12.6201V14.6801C22.5 15.2401 22.04 15.7001 21.47 15.7001H19.54C18.46 15.7001 17.47 14.9101 17.38 13.8301C17.32 13.2001 17.56 12.6101 17.98 12.2001C18.35 11.8201 18.86 11.6001 19.42 11.6001H21.47C22.04 11.6001 22.5 12.0601 22.5 12.6201Z" fill="url(#paint0_linear_290_3590)"/>
<path d="M15.88 13.9599C15.79 12.9099 16.17 11.8799 16.93 11.1299C17.57 10.4799 18.46 10.0999 19.42 10.0999H19.99C20.27 10.0999 20.5 9.8699 20.46 9.5899C20.19 7.6499 18.51 6.1499 16.5 6.1499H6.5C4.29 6.1499 2.5 7.9399 2.5 10.1499V17.1499C2.5 19.3599 4.29 21.1499 6.5 21.1499H16.5C18.52 21.1499 20.19 19.6499 20.46 17.7099C20.5 17.4299 20.27 17.1999 19.99 17.1999H19.54C17.64 17.1999 16.04 15.7799 15.88 13.9599ZM13.5 11.8999H7.5C7.09 11.8999 6.75 11.5699 6.75 11.1499C6.75 10.7299 7.09 10.3999 7.5 10.3999H13.5C13.91 10.3999 14.25 10.7399 14.25 11.1499C14.25 11.5599 13.91 11.8999 13.5 11.8999Z" fill="url(#paint1_linear_290_3590)"/>
<path d="M14.71 3.9801C14.97 4.2501 14.74 4.6501 14.36 4.6501H6.53C5.44 4.6501 4.42 4.9701 3.57 5.5201C3.18 5.7701 2.65 5.5001 2.84 5.0701C3.4 3.7601 4.71 2.8501 6.22 2.8501H11.84C13 2.8501 14.03 3.2601 14.71 3.9801Z" fill="url(#paint2_linear_290_3590)"/>
<defs>
<linearGradient id="paint0_linear_290_3590" x1="22.0653" y1="11.7863" x2="18.8024" y2="16.256" gradientUnits="userSpaceOnUse">
<stop stop-color="#FF7700"/>
<stop offset="1" stop-color="#E10CFF"/>
</linearGradient>
<linearGradient id="paint1_linear_290_3590" x1="18.9419" y1="6.83109" x2="6.85529" y2="22.6817" gradientUnits="userSpaceOnUse">
<stop stop-color="#FF7700"/>
<stop offset="1" stop-color="#E10CFF"/>
</linearGradient>
<linearGradient id="paint2_linear_290_3590" x1="13.802" y1="2.9757" x2="12.8719" y2="7.40244" gradientUnits="userSpaceOnUse">
<stop stop-color="#FF7700"/>
<stop offset="1" stop-color="#E10CFF"/>
</linearGradient>
</defs>
</svg>
