<svg width="23" height="23" viewBox="0 0 23 23" fill="none" xmlns="http://www.w3.org/2000/svg">
<path d="M16.2916 2.32861H6.70829C3.83329 2.32861 1.91663 4.24528 1.91663 7.12028V12.8703C1.91663 15.7453 3.83329 17.6619 6.70829 17.6619V19.7032C6.70829 20.4699 7.56121 20.9299 8.19371 20.4986L12.4583 17.6619H16.2916C19.1666 17.6619 21.0833 15.7453 21.0833 12.8703V7.12028C21.0833 4.24528 19.1666 2.32861 16.2916 2.32861ZM11.5 13.9915C11.0975 13.9915 10.7812 13.6657 10.7812 13.2728C10.7812 12.8799 11.0975 12.554 11.5 12.554C11.9025 12.554 12.2187 12.8799 12.2187 13.2728C12.2187 13.6657 11.9025 13.9915 11.5 13.9915ZM12.7075 10.0144C12.3337 10.2636 12.2187 10.4265 12.2187 10.6949V10.8961C12.2187 11.289 11.8929 11.6149 11.5 11.6149C11.107 11.6149 10.7812 11.289 10.7812 10.8961V10.6949C10.7812 9.5832 11.5958 9.03695 11.9025 8.82611C12.257 8.58653 12.372 8.42361 12.372 8.17445C12.372 7.69528 11.9791 7.30236 11.5 7.30236C11.0208 7.30236 10.6279 7.69528 10.6279 8.17445C10.6279 8.56736 10.302 8.8932 9.90913 8.8932C9.51621 8.8932 9.19038 8.56736 9.19038 8.17445C9.19038 6.89986 10.2254 5.86486 11.5 5.86486C12.7745 5.86486 13.8095 6.89986 13.8095 8.17445C13.8095 9.26695 13.0045 9.8132 12.7075 10.0144Z" fill="url(#paint0_linear_181_183)"/>
<defs>
<linearGradient id="paint0_linear_181_183" x1="11.5" y1="2.32861" x2="11.5" y2="20.6646" gradientUnits="userSpaceOnUse">
<stop stop-color="#CBCBCB"/>
<stop offset="1" stop-color="#757575"/>
</linearGradient>
</defs>
</svg>
