<svg width="18" height="18" viewBox="0 0 18 18" fill="none" xmlns="http://www.w3.org/2000/svg">
<path d="M8.625 15.75C12.56 15.75 15.75 12.56 15.75 8.625C15.75 4.68997 12.56 1.5 8.625 1.5C4.68997 1.5 1.5 4.68997 1.5 8.625C1.5 12.56 4.68997 15.75 8.625 15.75Z" fill="url(#paint0_linear_331_6331)"/>
<path d="M15.9749 16.4999C15.8399 16.4999 15.7049 16.4474 15.6074 16.3499L14.2124 14.9549C14.0099 14.7524 14.0099 14.4224 14.2124 14.2124C14.4149 14.0099 14.7449 14.0099 14.9549 14.2124L16.3499 15.6074C16.5524 15.8099 16.5524 16.1399 16.3499 16.3499C16.2449 16.4474 16.1099 16.4999 15.9749 16.4999Z" fill="url(#paint1_linear_331_6331)"/>
<defs>
<linearGradient id="paint0_linear_331_6331" x1="8.625" y1="1.5" x2="8.625" y2="15.75" gradientUnits="userSpaceOnUse">
<stop stop-color="#CBCBCB"/>
<stop offset="1" stop-color="#757575"/>
</linearGradient>
<linearGradient id="paint1_linear_331_6331" x1="15.2812" y1="14.0605" x2="15.2812" y2="16.4999" gradientUnits="userSpaceOnUse">
<stop stop-color="#CBCBCB"/>
<stop offset="1" stop-color="#757575"/>
</linearGradient>
</defs>
</svg>
