<svg width="25" height="24" viewBox="0 0 25 24" fill="none" xmlns="http://www.w3.org/2000/svg">
<path d="M12.5 2C6.99 2 2.5 6.49 2.5 12C2.5 17.51 6.99 22 12.5 22C18.01 22 22.5 17.51 22.5 12C22.5 6.49 18.01 2 12.5 2ZM16.5 12.75H13.25V16C13.25 16.41 12.91 16.75 12.5 16.75C12.09 16.75 11.75 16.41 11.75 16V12.75H8.5C8.09 12.75 7.75 12.41 7.75 12C7.75 11.59 8.09 11.25 8.5 11.25H11.75V8C11.75 7.59 12.09 7.25 12.5 7.25C12.91 7.25 13.25 7.59 13.25 8V11.25H16.5C16.91 11.25 17.25 11.59 17.25 12C17.25 12.41 16.91 12.75 16.5 12.75Z" fill="white"/>
</svg>
