<svg width="25" height="24" viewBox="0 0 25 24" fill="none" xmlns="http://www.w3.org/2000/svg">
<path d="M22.1699 6.9499C21.5299 4.7799 19.7199 2.9699 17.5499 2.3299C15.8999 1.8499 14.7599 1.8899 13.9699 2.4799C13.0199 3.1899 12.9099 4.4699 12.9099 5.3799V7.8699C12.9099 10.3299 14.0299 11.5799 16.2299 11.5799H19.0999C19.9999 11.5799 21.2899 11.4699 21.9999 10.5199C22.6099 9.7399 22.6599 8.5999 22.1699 6.9499Z" fill="url(#paint0_linear_290_3598)"/>
<path d="M19.4099 13.3599C19.1499 13.0599 18.7699 12.8899 18.3799 12.8899H14.7999C13.0399 12.8899 11.6099 11.4599 11.6099 9.69991V6.11991C11.6099 5.72991 11.4399 5.34991 11.1399 5.08991C10.8499 4.82991 10.4499 4.70991 10.0699 4.75991C7.7199 5.05991 5.5599 6.34991 4.1499 8.28991C2.7299 10.2399 2.2099 12.6199 2.6599 14.9999C3.3099 18.4399 6.0599 21.1899 9.5099 21.8399C10.0599 21.9499 10.6099 21.9999 11.1599 21.9999C12.9699 21.9999 14.7199 21.4399 16.2099 20.3499C18.1499 18.9399 19.4399 16.7799 19.7399 14.4299C19.7899 14.0399 19.6699 13.6499 19.4099 13.3599Z" fill="url(#paint1_linear_290_3598)"/>
<defs>
<linearGradient id="paint0_linear_290_3598" x1="17.7057" y1="2.00049" x2="17.7057" y2="11.5799" gradientUnits="userSpaceOnUse">
<stop stop-color="#CBCBCB"/>
<stop offset="1" stop-color="#757575"/>
</linearGradient>
<linearGradient id="paint1_linear_290_3598" x1="11.1267" y1="4.74878" x2="11.1267" y2="21.9999" gradientUnits="userSpaceOnUse">
<stop stop-color="#CBCBCB"/>
<stop offset="1" stop-color="#757575"/>
</linearGradient>
</defs>
</svg>
