<svg width="25" height="24" viewBox="0 0 25 24" fill="none" xmlns="http://www.w3.org/2000/svg">
<path d="M21.49 9.71C21.15 9.57 20.7 9.5 20.14 9.5H14.86C13.12 9.5 12.5 10.12 12.5 11.88V19.62C12.5 20.2 12.57 20.65 12.72 21C13.03 21.72 13.69 22 14.86 22H20.14C21.88 22 22.5 21.37 22.5 19.62V11.88C22.5 10.69 22.22 10.02 21.49 9.71ZM18.5 19.75H16.5C16.48 19.75 16.45 19.75 16.43 19.74C16.28 19.73 16.15 19.68 16.04 19.58C15.86 19.45 15.75 19.24 15.75 19C15.75 18.59 16.09 18.25 16.5 18.25H18.5C18.91 18.25 19.25 18.59 19.25 19C19.25 19.41 18.91 19.75 18.5 19.75Z" fill="url(#paint0_linear_333_10588)"/>
<path d="M21.4898 6.19V7C21.4898 7.55 21.0398 8 20.4898 8H14.8598C12.2998 8 10.9998 9.31 10.9998 11.88V21C10.9998 21.55 10.5498 22 9.99977 22H8.04977C7.64977 22 7.32977 21.68 7.32977 21.29C7.32977 20.89 7.64977 20.58 8.04977 20.58H9.99977V16.75H6.49977C4.27977 16.64 2.50977 14.81 2.50977 12.56V6.19C2.50977 3.88 4.38977 2 6.70977 2H17.2998C19.6098 2 21.4898 3.88 21.4898 6.19Z" fill="url(#paint1_linear_333_10588)"/>
<defs>
<linearGradient id="paint0_linear_333_10588" x1="21.6524" y1="10.0677" x2="11.2987" y2="19.1376" gradientUnits="userSpaceOnUse">
<stop stop-color="#FF7700"/>
<stop offset="1" stop-color="#E10CFF"/>
</linearGradient>
<linearGradient id="paint1_linear_333_10588" x1="19.8811" y1="2.90826" x2="3.18202" y2="20.2612" gradientUnits="userSpaceOnUse">
<stop stop-color="#FF7700"/>
<stop offset="1" stop-color="#E10CFF"/>
</linearGradient>
</defs>
</svg>
