<svg width="24" height="24" viewBox="0 0 24 24" fill="none" xmlns="http://www.w3.org/2000/svg">
<path d="M21.06 11.82L20.9 11.6C20.62 11.26 20.29 10.99 19.91 10.79C19.4 10.5 18.82 10.35 18.22 10.35H5.76995C5.16995 10.35 4.59995 10.5 4.07995 10.79C3.68995 11 3.33995 11.29 3.04995 11.65C2.47995 12.38 2.20995 13.28 2.29995 14.18L2.66995 18.85C2.79995 20.26 2.96995 22 6.13995 22H17.86C21.03 22 21.19 20.26 21.33 18.84L21.7 14.19C21.79 13.35 21.57 12.51 21.06 11.82ZM14.39 17.34H9.59995C9.20995 17.34 8.89995 17.02 8.89995 16.64C8.89995 16.26 9.20995 15.94 9.59995 15.94H14.39C14.78 15.94 15.09 16.26 15.09 16.64C15.09 17.03 14.78 17.34 14.39 17.34Z" fill="url(#paint0_linear_290_5706)"/>
<path d="M20.561 8.59643C20.5986 8.97928 20.1833 9.23561 19.8185 9.11348C19.3137 8.94449 18.7824 8.86 18.2299 8.86H5.76988C5.21304 8.86 4.66478 8.95012 4.15322 9.12194C3.79283 9.24298 3.37988 8.99507 3.37988 8.61489V6.66C3.37988 3.09 4.46988 2 8.03988 2H9.21988C10.6499 2 11.0999 2.46 11.6799 3.21L12.8799 4.81C13.1299 5.15 13.1399 5.17 13.5799 5.17H15.9599C19.0856 5.17 20.3069 6.00724 20.561 8.59643Z" fill="url(#paint1_linear_290_5706)"/>
<defs>
<linearGradient id="paint0_linear_290_5706" x1="20.0722" y1="10.879" x2="11.8723" y2="25.8593" gradientUnits="userSpaceOnUse">
<stop stop-color="#FF7700"/>
<stop offset="1" stop-color="#E10CFF"/>
</linearGradient>
<linearGradient id="paint1_linear_290_5706" x1="19.1495" y1="2.33878" x2="14.8866" y2="13.1199" gradientUnits="userSpaceOnUse">
<stop stop-color="#FF7700"/>
<stop offset="1" stop-color="#E10CFF"/>
</linearGradient>
</defs>
</svg>
