<svg width="36" height="36" viewBox="0 0 36 36" fill="none" xmlns="http://www.w3.org/2000/svg">
<rect x="0.5" y="0.5" width="35" height="35" rx="17.5" stroke="url(#paint0_linear_455_5353)"/>
<path d="M18 8C15.38 8 13.25 10.13 13.25 12.75C13.25 15.32 15.26 17.4 17.88 17.49C17.96 17.48 18.04 17.48 18.1 17.49C18.12 17.49 18.13 17.49 18.15 17.49C18.16 17.49 18.16 17.49 18.17 17.49C20.73 17.4 22.74 15.32 22.75 12.75C22.75 10.13 20.62 8 18 8Z" fill="url(#paint1_linear_455_5353)"/>
<path d="M23.08 20.1499C20.29 18.2899 15.74 18.2899 12.93 20.1499C11.66 20.9999 10.96 22.1499 10.96 23.3799C10.96 24.6099 11.66 25.7499 12.92 26.5899C14.32 27.5299 16.16 27.9999 18 27.9999C19.84 27.9999 21.68 27.5299 23.08 26.5899C24.34 25.7399 25.04 24.5999 25.04 23.3599C25.03 22.1299 24.34 20.9899 23.08 20.1499Z" fill="url(#paint2_linear_455_5353)"/>
<defs>
<linearGradient id="paint0_linear_455_5353" x1="32.9487" y1="1.63486" x2="2.99173" y2="34.4379" gradientUnits="userSpaceOnUse">
<stop stop-color="#FF7700"/>
<stop offset="1" stop-color="#E10CFF"/>
</linearGradient>
<linearGradient id="paint1_linear_455_5353" x1="21.9448" y1="8.43097" x2="14.0486" y2="17.0865" gradientUnits="userSpaceOnUse">
<stop stop-color="#FF7700"/>
<stop offset="1" stop-color="#E10CFF"/>
</linearGradient>
<linearGradient id="paint2_linear_455_5353" x1="23.8466" y1="19.1747" x2="17.0326" y2="30.5384" gradientUnits="userSpaceOnUse">
<stop stop-color="#FF7700"/>
<stop offset="1" stop-color="#E10CFF"/>
</linearGradient>
</defs>
</svg>
