<svg width="25" height="24" viewBox="0 0 25 24" fill="none" xmlns="http://www.w3.org/2000/svg">
<path d="M11.5 16.15V18.85C11.5 21.1 10.6 22 8.35 22H5.65C3.4 22 2.5 21.1 2.5 18.85V16.15C2.5 13.9 3.4 13 5.65 13H8.35C10.6 13 11.5 13.9 11.5 16.15Z" fill="url(#paint0_linear_290_4467)"/>
<path d="M18 11C20.4853 11 22.5 8.98528 22.5 6.5C22.5 4.01472 20.4853 2 18 2C15.5147 2 13.5 4.01472 13.5 6.5C13.5 8.98528 15.5147 11 18 11Z" fill="url(#paint1_linear_290_4467)"/>
<path d="M15.28 22C15.01 22 14.76 21.85 14.63 21.62C14.5 21.38 14.5 21.1 14.64 20.86L15.61 19.24C15.82 18.88 16.28 18.77 16.64 18.98C17 19.19 17.11 19.65 16.9 20.01L16.72 20.31C19.19 19.67 21.01 17.43 21.01 14.77C21.01 14.36 21.35 14.02 21.76 14.02C22.17 14.02 22.5 14.36 22.5 14.78C22.5 18.76 19.26 22 15.28 22Z" fill="url(#paint2_linear_290_4467)"/>
<path d="M3.25 9.97C2.84 9.97 2.5 9.64 2.5 9.22C2.5 5.24 5.74 2 9.72 2C10 2 10.24 2.15 10.38 2.38C10.51 2.62 10.51 2.9 10.37 3.14L9.4 4.75C9.18 5.11 8.72 5.23 8.37 5.01C8.01 4.8 7.9 4.34 8.11 3.98L8.29 3.68C5.83 4.32 4 6.56 4 9.22C4 9.64 3.66 9.97 3.25 9.97Z" fill="url(#paint3_linear_290_4467)"/>
<defs>
<linearGradient id="paint0_linear_290_4467" x1="10.7372" y1="13.4087" x2="3.24793" y2="21.6095" gradientUnits="userSpaceOnUse">
<stop stop-color="#FF7700"/>
<stop offset="1" stop-color="#E10CFF"/>
</linearGradient>
<linearGradient id="paint1_linear_290_4467" x1="21.7372" y1="2.40871" x2="14.2479" y2="10.6095" gradientUnits="userSpaceOnUse">
<stop stop-color="#FF7700"/>
<stop offset="1" stop-color="#E10CFF"/>
</linearGradient>
<linearGradient id="paint2_linear_290_4467" x1="21.8248" y1="14.3824" x2="15.1833" y2="21.6424" gradientUnits="userSpaceOnUse">
<stop stop-color="#FF7700"/>
<stop offset="1" stop-color="#E10CFF"/>
</linearGradient>
<linearGradient id="paint3_linear_290_4467" x1="9.80023" y1="2.36194" x2="3.16856" y2="9.62938" gradientUnits="userSpaceOnUse">
<stop stop-color="#FF7700"/>
<stop offset="1" stop-color="#E10CFF"/>
</linearGradient>
</defs>
</svg>
